HIERARCHY
ROOT Hips
{
	OFFSET 0.000000 0.000000 0.000000
	CHANNELS 6 Xposition Yposition Zposition Zrotation Yrotation Xrotation 
	JOINT LHipJoint
	{
		OFFSET 0.000000 0.000000 0.000000
		CHANNELS 3 Zrotation Yrotation Xrotation
		JOINT LeftUpLeg
		{
			OFFSET 1.363060 -1.794630 0.839290
			CHANNELS 3 Zrotation Yrotation Xrotation
			JOINT LeftLeg
			{
				OFFSET 2.448110 -6.726130 0.000000
				CHANNELS 3 Zrotation Yrotation Xrotation
				JOINT LeftFoot
				{
					OFFSET 2.562200 -7.039590 0.000000
					CHANNELS 3 Zrotation Yrotation Xrotation
					JOINT LeftToeBase
					{
						OFFSET 0.157640 -0.433110 2.322550
						CHANNELS 3 Zrotation Yrotation Xrotation
						End Site
						{
							OFFSET 0.000000 0.000000 0.000000
						}
					}
				}
			}
		}
	}
	JOINT RHipJoint
	{
		OFFSET 0.000000 0.000000 0.000000
		CHANNELS 3 Zrotation Yrotation Xrotation
		JOINT RightUpLeg
		{
			OFFSET -1.305520 -1.794630 0.839290
			CHANNELS 3 Zrotation Yrotation Xrotation
			JOINT RightLeg
			{
				OFFSET -2.542530 -6.985550 0.000000
				CHANNELS 3 Zrotation Yrotation Xrotation
				JOINT RightFoot
				{
					OFFSET -2.568260 -7.056230 0.000000
					CHANNELS 3 Zrotation Yrotation Xrotation
					JOINT RightToeBase
					{
						OFFSET -0.164730 -0.452590 2.363150
						CHANNELS 3 Zrotation Yrotation Xrotation
						End Site
						{
							OFFSET 0.000000 0.000000 0.000000
						}
					}
				}
			}
		}
	}
	JOINT LowerBack
	{
		OFFSET 0.000000 0.000000 0.000000
		CHANNELS 3 Zrotation Yrotation Xrotation
		JOINT Spine
		{
			OFFSET 0.028270 2.035590 -0.193380
			CHANNELS 3 Zrotation Yrotation Xrotation
			JOINT Spine1
			{
				OFFSET 0.056720 2.048850 -0.042750
				CHANNELS 3 Zrotation Yrotation Xrotation
				JOINT Neck
				{
					OFFSET 0.000000 0.000000 0.000000
					CHANNELS 3 Zrotation Yrotation Xrotation
					JOINT Neck1
					{
						OFFSET -0.054170 1.746240 0.172020
						CHANNELS 3 Zrotation Yrotation Xrotation
						JOINT Head
						{
							OFFSET 0.104070 1.761360 -0.123970
							CHANNELS 3 Zrotation Yrotation Xrotation
							End Site
							{
								OFFSET 0.000000 0.000000 0.000000
							}
						}
					}
				}
				JOINT LeftShoulder
				{
					OFFSET 0.000000 0.000000 0.000000
					CHANNELS 3 Zrotation Yrotation Xrotation
					JOINT LeftArm
					{
						OFFSET 3.362410 1.200890 -0.311210
						CHANNELS 3 Zrotation Yrotation Xrotation
						JOINT LeftForeArm
						{
							OFFSET 4.983000 -0.000000 -0.000000
							CHANNELS 3 Zrotation Yrotation Xrotation
							JOINT LeftHand
							{
								OFFSET 3.483560 -0.000000 -0.000000
								CHANNELS 3 Zrotation Yrotation Xrotation
								JOINT LeftFingerBase
								{
									OFFSET 0.000000 0.000000 0.000000
									CHANNELS 3 Zrotation Yrotation Xrotation
									JOINT LeftHandIndex1
									{
										OFFSET 0.715260 -0.000000 -0.000000
										CHANNELS 3 Zrotation Yrotation Xrotation
										End Site
										{
											OFFSET 0.000000 0.000000 0.000000
										}
									}
								}
								JOINT LThumb
								{
									OFFSET 0.000000 0.000000 0.000000
									CHANNELS 3 Zrotation Yrotation Xrotation
									End Site
									{
										OFFSET 0.000000 0.000000 0.000000
									}
								}
							}
						}
					}
				}
				JOINT RightShoulder
				{
					OFFSET 0.000000 0.000000 0.000000
					CHANNELS 3 Zrotation Yrotation Xrotation
					JOINT RightArm
					{
						OFFSET -3.136600 1.374050 -0.404650
						CHANNELS 3 Zrotation Yrotation Xrotation
						JOINT RightForeArm
						{
							OFFSET -5.241900 -0.000000 -0.000000
							CHANNELS 3 Zrotation Yrotation Xrotation
							JOINT RightHand
							{
								OFFSET -3.444170 -0.000000 -0.000000
								CHANNELS 3 Zrotation Yrotation Xrotation
								JOINT RightFingerBase
								{
									OFFSET 0.000000 0.000000 0.000000
									CHANNELS 3 Zrotation Yrotation Xrotation
									JOINT RightHandIndex1
									{
										OFFSET -0.622530 -0.000000 -0.000000
										CHANNELS 3 Zrotation Yrotation Xrotation
										End Site
										{
											OFFSET 0.000000 0.000000 0.000000
										}
									}
								}
								JOINT RThumb
								{
									OFFSET 0.000000 0.000000 0.000000
									CHANNELS 3 Zrotation Yrotation Xrotation
									End Site
									{
										OFFSET 0.000000 0.000000 0.000000
									}
								}
							}
						}
					}
				}
			}
		}
	}
}
MOTION
Frames: 7
Frame Time: 0.008333
4.981733 19.777655 0.911649 138.786480 -87.509695 -113.470727 -11.581808 4.626380 4.719500 -5.833678 -0.505479 -14.700579 0.594716 0.419894 26.277936 2.033688 1.669012 41.469238 0.357299 0.000000 -64.932501 11.451036 -4.210201 2.213188 2.395424 -9.578053 -15.923439 0.779276 -1.321951 20.416312 -0.195131 13.250237 35.779694 9.106000 0.000000 -85.755900 -0.565824 -0.756819 -8.347868 -0.165531 -0.823263 -5.432962 -2.785836 -0.820956 -5.259975 0.502437 -2.301911 4.837130 -0.942921 -0.271225 3.510422 0.000000 0.000000 0.000000 12.108081 1.566379 -5.068293 -35.271349 -61.265324 -30.101904 178.635873 -88.281215 179.668326 20.701392 -5.498798 -1.192054 -0.124899 0.976510 -0.000000 0.000000 0.000000 0.000000 0.000000 0.000000 0.000000 -8.188168 -2.026853 -6.288626 45.059556 64.998873 -22.158830 -178.085941 84.441863 179.703691 -19.327718 10.958503 -2.041197 0.045340 -0.937307 -0.000000 0.000000 0.000000 0.000000 0.000000 0.000000 0.000000 
4.745498 19.933600 0.901735 144.130054 -87.356790 -119.094039 -11.659064 4.499493 4.423833 -6.132261 0.670325 -15.486232 0.546370 0.457643 27.145892 2.027459 1.440020 41.450924 0.189900 -0.000001 -65.362600 11.366502 -4.146562 2.066372 2.766109 -10.028163 -16.431931 0.890380 -1.327119 19.863715 -0.149993 12.220939 34.937239 8.259701 0.000000 -85.698700 -0.518737 -0.789113 -7.898108 -0.163486 -0.852433 -5.311187 -2.820884 -0.846395 -5.099139 0.619398 -2.332279 4.882362 -0.949632 -0.271664 3.514705 0.000000 0.000000 0.000000 12.277212 1.931911 -4.968131 -35.077633 -60.151067 -30.362848 178.480918 -86.809700 179.665758 21.009162 -5.373119 -1.186547 -0.138244 0.972651 -0.000000 0.000000 0.000000 0.000000 0.000000 0.000000 0.000000 -8.204495 -2.175270 -6.362531 44.455855 64.292413 -22.785543 -177.799390 82.247214 179.698621 -19.761545 11.004705 -2.097730 0.057972 -0.940246 -0.000000 0.000000 0.000000 0.000000 0.000000 0.000000 0.000000 
4.512499 20.081952 0.891871 147.974299 -87.232636 -123.182046 -11.728133 4.371690 4.126242 -6.405855 1.826000 -16.233876 0.486267 0.489020 27.560164 2.027810 1.332547 41.620445 0.116599 0.000000 -65.636200 11.286617 -4.068672 1.880269 3.190219 -10.637930 -16.919154 1.020996 -1.313180 19.021845 -0.121208 11.071618 34.303883 7.385500 -0.000000 -85.509700 -0.481368 -0.831077 -7.395204 -0.162809 -0.888727 -5.178187 -2.854173 -0.879213 -4.934033 0.739247 -2.363322 4.938554 -0.955722 -0.272125 3.520749 0.000000 0.000000 0.000000 12.446269 2.279908 -4.878221 -34.964056 -59.131726 -30.573868 178.344362 -85.437200 179.663407 21.303550 -5.260401 -1.181944 -0.151553 0.968828 -0.000000 0.000000 0.000000 0.000000 0.000000 0.000000 0.000000 -8.226698 -2.341172 -6.420790 43.886932 63.520557 -23.395897 -177.524627 80.079538 179.693547 -20.229799 11.042879 -2.157267 0.072782 -0.942827 -0.000000 0.000000 0.000000 0.000000 0.000000 0.000000 0.000000 
4.281475 20.222548 0.882006 150.526511 -87.155976 -125.928825 -11.784055 4.245017 3.844042 -6.662105 2.904252 -16.954380 0.416765 0.511905 27.518708 2.029900 1.364811 41.889507 0.150700 0.000000 -65.780700 11.213628 -3.980395 1.671032 3.668424 -11.367702 -17.414515 1.170586 -1.280134 17.935488 -0.105417 9.853182 33.843965 6.505900 0.000000 -85.260500 -0.452750 -0.882380 -6.877126 -0.163595 -0.932800 -5.040337 -2.887927 -0.920129 -4.762765 0.866005 -2.400152 5.003206 -0.963384 -0.272699 3.528223 0.000000 0.000000 0.000000 12.610552 2.601070 -4.799962 -34.945711 -58.213753 -30.711223 178.227777 -84.185611 179.661588 21.562586 -5.150667 -1.175339 -0.164141 0.964899 -0.000000 0.000000 0.000000 0.000000 0.000000 0.000000 0.000000 -8.242245 -2.528595 -6.459812 43.379368 62.687350 -23.949577 -177.268726 77.975314 179.688742 -20.713048 11.068487 -2.216505 0.089354 -0.944873 -0.000000 0.000000 0.000000 0.000000 0.000000 0.000000 0.000000 
4.051421 20.354400 0.872220 151.947360 -87.134880 -127.488287 -11.822698 4.122083 3.589060 -6.915672 3.858317 -17.650134 0.339739 0.526175 27.040629 2.028328 1.552990 42.157019 0.305201 0.000000 -65.789801 11.149387 -3.883095 1.449087 4.193204 -12.185917 -17.953733 1.338839 -1.231420 16.698510 -0.095053 8.642071 33.463088 5.650700 -0.000000 -84.711900 -0.431304 -0.941492 -6.368955 -0.165729 -0.983944 -4.902244 -2.923262 -0.968426 -4.585525 1.000305 -2.448688 5.070971 -0.974042 -0.273399 3.536015 0.000000 0.000000 0.000000 12.764460 2.886653 -4.732983 -35.019731 -57.398134 -30.768308 178.132010 -83.070413 179.660523 21.770897 -5.034163 -1.163930 -0.175527 0.960696 -0.000000 0.000000 0.000000 0.000000 0.000000 0.000000 0.000000 -8.243109 -2.738741 -6.476761 42.946025 61.803057 -24.420969 -177.038905 75.973583 179.684445 -21.192704 11.077552 -2.272542 0.107217 -0.946241 -0.000000 0.000000 0.000000 0.000000 0.000000 0.000000 0.000000 
3.821655 20.476698 0.862769 152.420405 -87.172936 -128.035058 -11.843658 4.003687 3.370161 -7.175082 4.652615 -18.337200 0.256614 0.532469 26.169211 2.018621 1.905557 42.331566 0.587300 0.000000 -65.772800 11.090960 -3.779201 1.229271 4.768752 -13.034540 -18.565984 1.523091 -1.168754 15.375680 -0.086034 7.468467 33.107893 4.829200 -0.000001 -84.197900 -0.408609 -1.005262 -5.896693 -0.167551 -1.040419 -4.769094 -2.960438 -1.022321 -4.403136 1.139504 -2.515384 5.134582 -0.988272 -0.274175 3.542593 0.000000 0.000000 0.000000 12.904109 3.130105 -4.675842 -35.181245 -56.679229 -30.742757 178.056507 -82.095714 179.660336 21.919241 -4.902683 -1.145813 -0.185382 0.956111 -0.000000 0.000000 0.000000 0.000000 0.000000 0.000000 0.000000 -8.228272 -2.971235 -6.470173 42.591969 60.877734 -24.796251 -176.841203 74.111970 179.680847 -21.650470 11.067032 -2.322474 0.125805 -0.946841 -0.000000 0.000000 0.000000 0.000000 0.000000 0.000000 0.000000 
3.591870 20.588373 0.854043 152.103736 -87.267349 -127.732085 -11.847711 3.891300 3.188037 -7.445004 5.276586 -19.024012 0.166141 0.534023 24.974184 1.994110 2.398265 42.300678 0.977600 -0.000000 -65.440900 11.034453 -3.669832 1.017869 5.392768 -13.876194 -19.272501 1.722571 -1.097120 14.066379 -0.069359 6.399835 32.663986 4.070900 0.000000 -83.306701 -0.374509 -1.069967 -5.468331 -0.167023 -1.099620 -4.643170 -2.999265 -1.079086 -4.218273 1.279508 -2.605622 5.186898 -1.006368 -0.274962 3.546344 0.000000 0.000000 0.000000 13.025230 3.326017 -4.625957 -35.416027 -56.045822 -30.642796 178.000284 -81.259136 179.661054 22.004760 -4.752959 -1.120186 -0.193574 0.951102 -0.000000 0.000000 0.000000 0.000000 0.000000 0.000000 0.000000 -8.197763 -3.223404 -6.439944 42.308578 59.925977 -25.075140 -176.679574 72.418837 179.678094 -22.069770 11.035059 -2.363701 0.144522 -0.946603 -0.000000 0.000000 0.000000 0.000000 0.000000 0.000000 0.000000 
